<svg xmlns="http://www.w3.org/2000/svg" width="150" height="150" version="1.0" shape-rendering="geometricPrecision" text-rendering="geometricPrecision" image-rendering="optimizeQuality" fill-rule="evenodd" clip-rule="evenodd"><defs><style>.fil0{fill:#000}</style></defs><g id="Layer_x0020_1"><g id="_2464275739952"><path class="fil0" d="M91.406 143.555c.972-1.451 2.27-2.017 3.229-3.216.516-.644.953-1.114 1.459-1.765l7.706-11.922c.404-.932.53-1.347.984-2.24 1.257-2.475 2.744-6.524 3.652-9.238 2.49-7.446-.616-3.86 11.265-8.364 6.976-2.645 12.868-5.969 18.754-10.542l5.1-4.862c-1.54 6.61-4.269 13.587-7.377 18.697l-5.151 7.74c-1.002 1.213-1.822 2.437-2.924 3.521l-8.344 8.063c-7.688 6.7-18.316 11.79-28.353 14.128zM73.359 0h3.285c10.16.2 20.183 2.284 28.434 6.25 10.056 4.834 9.439 4.592 18.097 11.2 3.21 2.451 1.286 4.815-1.007 4.815l-6.692-5.026c-6.511-4.806-16.223-8.966-24.07-10.794.528.787 4.634 4.225 8.911 10.718l3.567 6.394c.413 1.002.577 1.396.999 2.224.743 1.457 1.255 2.851 1.925 4.52 4.72 11.763.532 8.643 8.366 11.263 5.255 1.757 8.783 3.26 13.537 5.799 10.956 5.854 12.606 9.732 14.844 11.231-1.723-7.396-4.836-14.839-8.732-20.859-.849-1.311-1.365-2.282-2.316-3.543-1.338-1.776-4.772-5.706-4.772-6.946 0-1.439 1.142-2.304 2.311-2.265 1.755.059 5.384 5.408 6.477 6.953 1.987 2.811 5.262 8.37 6.531 11.341.948 2.221 1.847 4.071 2.665 6.416.823 2.361 1.405 4.502 2.109 6.973 1.238 4.346 1.938 9.012 2.172 13.774v7.386c-.372 7.858-1.9 15.675-4.281 22.485-2.09 5.976-5.759 13.007-9.319 17.927C122.715 137.153 100.629 150 77.051 150c-17.385 0-28.353-3.304-42.467-11.732a43.493 43.493 0 01-2.65-1.745l-5.107-3.975c-.89-.685-1.806-1.272-1.848-2.504-.026-.783 1.186-3.959 4.415-1.234l4.964 3.825c6.378 4.772 16.497 9.117 24.236 10.92-1.005-1.501-2.253-1.992-3.354-3.385-5.181-6.56-3.55-4.094-7.904-11.432l-4.144-9.039c-4.72-11.763-.532-8.643-8.366-11.263-3.653-1.221-10.398-3.894-13.564-5.772-5.74-3.406-4.562-2.47-9.836-6.57-.651-.506-1.121-.943-1.765-1.459-1.199-.959-1.765-2.257-3.216-3.229 1.723 7.396 4.836 14.839 8.732 20.859 2.133 3.296 3.564 5.465 6.151 8.497 2.444 2.862-.431 4.405-1.595 4.237-1.962-.283-7.058-7.999-8.214-9.956-2.608-4.414-4.082-6.785-6.082-11.789C1.213 92.68 0 84.719 0 72.949c0-14.137 5.429-29.893 13.6-41.185 8.463-11.699 17.018-18.509 29.853-24.932C52.131 2.491 62.723.214 73.359 0zM45.117 111.328c1.682.14 9.9 1.984 14.087 2.319 5.042.404 10.449.904 15.796.904 2.959 0 4.757-.312 7.621-.29l7.613-.589c-2.589 3.867-4.98 5.628-4.98 8.496 0 .8 2.051 3.425 4.459.064l3.04-4.283c.848-1.228 1.657-2.263 2.46-3.4.418-.593.785-1.093 1.225-1.705 2.435-3.382-.593-4.172-4.987-7.42-.737-.544-6.433-4.643-6.783-4.643-2.797 0-3.562 2.761-1.472 4.402.58.456 1.226.773 1.934 1.288.95.691 3.11 2.084 3.64 2.806-3.466 0-6.458.587-10.254.587-13.794 0-18.356-.271-31.423-2.855-1.277-.253-2.197-.634-3.441-.661l-1.288-6.329c-.494-2.273-.746-4.533-1.073-6.838-2.223-15.686-1.34-30.716 1.7-46.088.253-1.277.633-2.197.661-3.441l6.329-1.288c16.623-3.606 36.348-2.651 52.926.627 1.277.253 2.197.633 3.441.661l1.288 6.329c1.92 8.847 2.228 18.733 2.228 27.949 0 13.445-3.252 31.299-8.597 43.259-1.958 4.383-4.61 9.512-7.608 13.193-3.039 3.731-6.688 7.682-11.287 9.513-7.67 3.053-13.364 1.637-19.637-3.017-8.072-5.988-15.533-20.601-17.618-29.55zm66.211-66.211c2.006.467 4.126 1.348 5.904 2.006 5.239 1.941 11.356 4.922 15.822 8.202 3.41 2.505 5.668 4.537 8.2 7.913 1.725 2.3 3.273 5.094 3.894 8.118 2.454 11.954-7.573 20.814-16.735 26.295-2.995 1.792-7.693 4.068-10.968 5.145l-6.117 2.087c.173-2.075.929-4.559 1.301-6.902 2.631-16.552 2.372-29.262.084-45.753-.305-2.2-1.083-4.757-1.385-7.111zM35.449 75c0 7.747.788 15.206 1.838 22.772.292 2.106 1.204 4.933 1.385 7.111-6.032-1.406-16.589-6.435-21.726-10.208-4.538-3.334-8.958-7.547-11.091-12.933-2.93-7.399-.86-15.129 4.468-20.443.396-.395.652-.597 1.016-1.035.5-.603.336-.592.896-1.153l2.244-1.858c.877-.694 1.419-1.147 2.3-1.802 2.582-1.92 7.28-4.645 10.178-5.936 1.803-.802 3.76-1.653 5.596-2.314 2.016-.725 3.965-1.582 6.119-2.084-.176 2.114-.986 4.593-1.346 6.857-.218 1.369-.277 2.329-.463 3.639-.144 1.017-.424 2.519-.51 3.591-.404 5.042-.904 10.449-.904 15.796zm10.84-52.148c-.035-.427-1.945-8.497-3.809-8.497-4.582 0-2.445 3.645-.841 8.459 3.739 11.22 1.103 9.665 16.336 4.692 2.772-.906 3.899-2.572 2.422-4.114-2.007-2.093-5.363.721-10.006 1.803 3.586-6.777 3.656-6.654 8.026-12.188l3.646-3.385c7.965-6.431 16.531-7.002 24.699-.876l5.165 4.795c5.494 6.341 11.153 17.392 12.956 25.131-2.114-.176-4.593-.986-6.857-1.346-20.915-3.326-43.72-2.124-62.763 4.089-6.852 2.236-13.375 5.132-19.327 9.091-5.519 3.67-8.639 7.518-9.491 8.088 2.577-11.059 5.78-16.413 11.194-24.548.497-.747.766-1.201 1.334-1.89l7.773-8.632c4.036-3.373 4.369-3.821 8.997-7.117 6.153-4.381 14.938-8.118 22.851-9.962-.696 1.038-.93.896-1.833 1.683-2.214 1.928-7.418 9.284-9.009 12.378l-1.463 2.346z"/><path class="fil0" d="M78.223 77.344c0 1.912.087 4.473-3.4 4.21-4.048-.306-4.161-6.893-.019-7.32 2.135-.221 3.419.854 3.419 3.11zm-10.547-8.496c0 7.604-1.727 16.505 7.582 16.289 1.978-.046 4.193-.658 5.384-1.858 2.034-2.048 4.946-12.381-5.349-12.381-1.984 0-2.403.72-3.516 1.465 0-4.155-.124-6.738 3.809-6.738.77 0 1.901.523 2.264.959.487.587.616 1.842.959 2.557 7.003 1.631 3.878-7.325-3.809-7.325-4.309 0-7.324 2.727-7.324 7.032zM89.062 77.051c0-6.58-1.07-11.426 3.516-11.426 4.051 0 2.93 6.219 2.93 11.719 0 5.612-6.446 5.596-6.446-.293zm-4.101-8.496c0 8.683-1.966 17.525 8.787 16.424 6.787-.696 6.154-7.27 6.154-13.202 0-5.112-.841-9.961-7.324-9.961-4.544 0-7.617 2.228-7.617 6.739zM50.976 67.676c0 .671.1.341.293 1.172 6.892 1.605 1.135-3.223 7.032-3.223 1.607 0 2.343 1.283 2.343 2.344 0 3.32-1.226 2.914-3.808 3.515-1.345 5.772 4.394 1.016 4.394 5.86 0 2.089-.315 3.226-1.574 3.699-1.259.472-2.182.476-3.368.071-2.954-1.01.265-4.484-5.312-3.184-1.602 3.339 1.275 6.677 6.313 7.168 4.371.425 8.043-2.139 8.043-6.582 0-1.872.168-2.424-.876-4.105-.548-.882-.906-1.195-2.054-1.462.865-1.292 3.223-3.442 2.005-7.274-1.914-6.016-13.431-4.94-13.431 2.001z"/></g></g></svg>