<svg xmlns="http://www.w3.org/2000/svg" viewBox="0 0 439.83 321.26"><defs><style>.cls-1{fill:#020203}</style></defs><g id="Layer_2" data-name="Layer 2"><g id="Layer_1-2" data-name="Layer 1"><path class="cls-1" d="M219.9 171c-9 0-219.9.64-219.9 56.14 0 43.57 128.62 53.28 183.48 55.43l-18 17.93a12.11 12.11 0 000 17.15 12.11 12.11 0 0017.16.05l34.56-34.35a13.49 13.49 0 00.86-17.89c-8.73-10.37-22.85-27-31.62-37.4a12.13 12.13 0 10-18.49 15.71l12.2 14.38C102.7 255 54.43 243.39 34.49 234a7.44 7.44 0 01-.06-13.71c24-11.4 88.28-25 185.5-25s161.47 13.58 185.49 25a7.44 7.44 0 01-.07 13.71c-20.81 9.85-72.39 22.11-155.79 24.61A12.25 12.25 0 00237.65 271 12 12 0 00250 282.81c50.47-1.64 189.83-10.31 189.83-55.67C439.8 171.65 228.88 171 219.9 171zM33.26 151v-24H36q19.31 11.05 36.17 11 13.32 0 20.82-5.52t7.5-16.14q0-8.43-5.86-13t-24.27-4.55h-7.42V79.65h7q28.32 0 28.32-17.28a12.14 12.14 0 00-6.07-11q-6.07-3.75-17.28-3.75-15.09 0-35.41 10.79H37v-23.7q21.42-8 41.22-8 23.43 0 35.45 8.6t12 22.85A28.11 28.11 0 01119 76.74a32.41 32.41 0 01-17.8 10.67v1.18q12.74 2.28 20.15 9.91t7.42 19.69q0 18.54-14.16 29.68T76.25 159a113 113 0 01-42.99-8zM237.69 28.81v21.75h-2.45c-5.33-2.59-11.78-3.88-19.31-3.88q-34.47 0-38.44 36.08 16.69-9.95 30.18-10 18.65 0 30.06 10.71t11.42 30q0 20.07-13.7 32.75T200.25 159q-24.7 0-37.81-15.22t-13.11-44q0-35.33 17.33-54.21T217 26.71a91.52 91.52 0 0120.69 2.1zM177.42 96.5l-.09 3.45c-.06 1.85-.08 3.35-.08 4.47q0 35.58 23.1 35.57a18.8 18.8 0 0015-6.58Q221 126.84 221 115q0-23.19-24.19-23.18a45.16 45.16 0 00-19.39 4.68zM314.83 159q-25.87 0-38-15.72t-12.1-50.46q0-34.4 12.14-50.24t37.95-15.88q25.8 0 37.94 15.81t12.14 50.2q0 35-12 50.62T314.83 159zm0-112.63q-11.81 0-16.9 11.09t-5.1 35.45q0 24.28 5.22 35.41t16.78 11.13q11.55 0 16.78-11.29t5.23-35.41q0-24.28-5.1-35.32t-16.91-11.09z"/><circle class="cls-1" cx="391.62" cy="26.7" r="26.7"/></g></g></svg>